Coordinates
version=1
nRows=7
nColumns=40
inDegrees=yes

Units are S.I. units (second, meters, Newtons, ...)
If the header above contains a line with 'inDegrees', this indicates whether rotational values are in degrees (yes) or radians (no).

endheader
time	pelvis_tilt	pelvis_list	pelvis_rotation	pelvis_tx	pelvis_ty	pelvis_tz	hip_flexion_r	hip_adduction_r	hip_rotation_r	knee_angle_r	knee_angle_r_beta	ankle_angle_r	subtalar_angle_r	mtp_angle_r	hip_flexion_l	hip_adduction_l	hip_rotation_l	knee_angle_l	knee_angle_l_beta	ankle_angle_l	subtalar_angle_l	mtp_angle_l	lumbar_extension	lumbar_bending	lumbar_rotation	arm_flex_r	arm_add_r	arm_rot_r	elbow_flex_r	pro_sup_r	wrist_flex_r	wrist_dev_r	arm_flex_l	arm_add_l	arm_rot_l	elbow_flex_l	pro_sup_l	wrist_flex_l	wrist_dev_l
     12.36700000	      5.78983392	      9.74437170	      8.81126665	      0.05030938	      1.31891638	     -0.00581007	     20.97673493	    -12.89006446	     -4.68874261	     42.82660439	      0.74746525	    -24.88075090	    -19.19619083	      0.00000000	     64.25923270	      6.25463518	     -1.10579061	     97.54186426	      1.70242669	     -6.85558868	    -15.95826192	      0.00000000	    -59.38582249	     -0.48147236	    -10.51551615	     49.95828084	     12.90662349	    -66.82277926	     43.88747207	     79.88458272	      0.00000000	      0.00000000	     58.86853619	     19.91297023	    -62.11148123	     43.47096413	     59.64978533	      0.00000000	      0.00000000
     12.38300000	      5.96534273	      9.16216407	      8.55695275	      0.05061407	      1.31930987	     -0.00598324	     22.03029906	    -12.34411483	     -4.06780352	     47.26662664	      0.82495826	    -24.23375586	    -19.53507691	      0.00000000	     63.50276691	      5.92092552	     -1.14898244	     94.11875856	      1.64268222	     -5.81251820	    -15.88054874	      0.00000000	    -59.55406057	     -0.19307321	     -9.89740905	     50.16894947	     12.93139755	    -66.87292302	     44.02838938	     79.80484639	      0.00000000	      0.00000000	     58.99879432	     19.93961018	    -62.13400929	     43.46002250	     59.71537984	      0.00000000	      0.00000000
     12.40000000	      6.21437584	      8.41914804	      8.15463859	      0.05083029	      1.31976425	     -0.00606419	     23.40024198	    -11.60484406	     -3.47133653	     52.02381954	      0.90798694	    -23.75975779	    -19.80883178	      0.00000000	     62.20799407	      5.28345387	     -1.09858810	     90.36987316	      1.57725183	     -5.18337444	    -15.73237631	      0.00000000	    -59.73391057	      0.10170400	     -9.07660766	     50.37549673	     12.96704873	    -66.87139510	     44.17426285	     79.75148698	      0.00000000	      0.00000000	     59.09439687	     19.92400772	    -62.21555015	     43.46667887	     59.77800429	      0.00000000	      0.00000000
     12.41700000	      6.68650412	      7.47366989	      7.80650877	      0.05099259	      1.32052662	     -0.00632073	     24.83671203	    -10.71183927	     -3.22448591	     57.09428358	      0.99648323	    -23.30106302	    -20.14760280	      0.00000000	     60.24445991	      4.43034426	     -0.92137904	     86.27551222	      1.50579175	     -5.16990808	    -15.66106521	      0.00000000	    -60.05388526	      0.61590666	     -8.10454385	     50.53955493	     12.97912407	    -66.72958353	     44.31620104	     79.61493773	      0.00000000	      0.00000000	     59.13828158	     19.91517918	    -62.32826638	     43.54533721	     59.76007077	      0.00000000	      0.00000000
     12.43300000	      7.15711236	      6.47610894	      7.28631848	      0.05109052	      1.32126653	     -0.00645465	     26.66973408	     -9.68663390	     -2.86930268	     62.47516381	      1.09039731	    -23.07533539	    -20.61123682	      0.00000000	     57.81257059	      3.28697783	     -0.87432437	     81.78810370	      1.42747170	     -5.51893532	    -15.53515552	      0.00000000	    -60.33455729	      1.01891688	     -6.99651552	     50.66705075	     13.03218296	    -66.56263025	     44.47297198	     79.50408392	      0.00000000	      0.00000000	     59.16989018	     19.91042143	    -62.57581027	     43.60113682	     59.72972580	      0.00000000	      0.00000000
     12.45000000	      7.67957074	      5.26088982	      7.01441337	      0.05118579	      1.32199929	     -0.00701868	     28.51494013	     -8.65947519	     -2.94458697	     67.66086159	      1.18090481	    -22.96772135	    -20.52295719	      0.00000000	     55.01642998	      2.26670900	     -0.44778339	     77.23387246	      1.34798537	     -5.91072397	    -15.35295100	      0.00000000	    -60.65392268	      1.82976256	     -5.85410254	     50.81978724	     13.06891719	    -66.27042744	     44.56743594	     79.16551169	      0.00000000	      0.00000000	     59.03153173	     19.81972267	    -62.54158069	     43.73876117	     59.63569420	      0.00000000	      0.00000000
     12.46700000	      7.96304850	      4.47183318	      5.71149029	      0.05121830	      1.32241523	     -0.00606040	     31.07939763	     -7.54543792	     -2.05363474	     72.92553988	      1.27279078	    -23.01931916	    -21.24519869	      0.00000000	     51.85767143	      0.55203354	     -1.23591639	     72.31423142	      1.26212143	     -6.49273673	    -14.95186343	      0.00000000	    -60.83436435	      1.52370455	     -4.61567718	     51.00842552	     13.36733239	    -66.19825218	     44.88708867	     79.27617072	      0.00000000	      0.00000000	     59.03823213	     19.63360736	    -62.82774947	     43.72655230	     59.60590506	      0.00000000	      0.00000000
